<?xml version="1.0" encoding="UTF-8"?>
<svg width="20px" height="20px" viewBox="0 0 20 20" version="1.1" xmlns="http://www.w3.org/2000/svg" xmlns:xlink="http://www.w3.org/1999/xlink">
    <title>画板</title>
    <g id="画板" stroke="none" stroke-width="1" fill="none" fill-rule="evenodd">
        <g id="编组" transform="translate(1.585786, 1.585786)" fill="#FFFFFF">
            <path d="M7.5,0 C11.6421356,0 15,3.35786438 15,7.5 C15,11.6421356 11.6421356,15 7.5,15 C3.35786438,15 0,11.6421356 0,7.5 C0,3.35786438 3.35786438,0 7.5,0 Z M7.5,2 C4.46243388,2 2,4.46243388 2,7.5 C2,10.5375661 4.46243388,13 7.5,13 C10.5375661,13 13,10.5375661 13,7.5 C13,4.46243388 10.5375661,2 7.5,2 Z" id="椭圆形" fill-rule="nonzero"></path>
            <rect id="矩形" transform="translate(13.510408, 13.510408) rotate(-45.000000) translate(-13.510408, -13.510408) " x="12.5104076" y="10.5104076" width="2" height="6"></rect>
        </g>
    </g>
</svg>